<?xml version="1.0" encoding="UTF-8" standalone="no"?>
<!DOCTYPE svg PUBLIC "-//W3C//DTD SVG 1.1//EN" "http://www.w3.org/Graphics/SVG/1.1/DTD/svg11.dtd">
<svg width="100%" height="100%" viewBox="0 0 348 80" version="1.1" xmlns="http://www.w3.org/2000/svg" xmlns:xlink="http://www.w3.org/1999/xlink" xml:space="preserve" xmlns:serif="http://www.serif.com/" style="fill-rule:evenodd;clip-rule:evenodd;stroke-linejoin:round;stroke-miterlimit:2;">
    <g transform="matrix(1,0,0,1,-37.0825,-197.769)">
        <g transform="matrix(1.06024,0,0,1.06024,-44.2866,-1.07736)">
            <path d="M190.429,243.174L190.429,206.81L212.375,206.81L212.375,210.716L194.833,210.716L194.833,223.003L211.239,223.003L211.239,226.909L194.833,226.909L194.833,239.267L212.66,239.267L212.66,243.174L190.429,243.174Z" style="fill:white;fill-rule:nonzero;"/>
        </g>
        <g transform="matrix(1.06024,0,0,1.06024,-44.2866,-1.07736)">
            <path d="M230.77,253.969C228.746,253.969 227.006,253.712 225.55,253.197C224.094,252.682 222.884,252.007 221.919,251.173C220.954,250.338 220.188,249.447 219.62,248.5L222.958,246.157C223.337,246.654 223.816,247.225 224.396,247.87C224.976,248.515 225.772,249.077 226.784,249.557C227.796,250.036 229.125,250.276 230.77,250.276C232.972,250.276 234.789,249.743 236.221,248.678C237.654,247.613 238.37,245.943 238.37,243.671L238.37,238.131L238.015,238.131C237.707,238.628 237.272,239.241 236.71,239.969C236.147,240.697 235.342,241.342 234.295,241.904C233.247,242.466 231.836,242.747 230.06,242.747C227.858,242.747 225.885,242.227 224.139,241.185C222.393,240.143 221.014,238.628 220.001,236.64C218.989,234.651 218.483,232.236 218.483,229.395C218.483,226.602 218.975,224.166 219.957,222.089C220.94,220.011 222.307,218.401 224.059,217.259C225.811,216.117 227.835,215.546 230.131,215.546C231.907,215.546 233.318,215.839 234.366,216.425C235.413,217.011 236.218,217.673 236.781,218.413C237.343,219.153 237.778,219.76 238.086,220.233L238.512,220.233L238.512,215.901L242.56,215.901L242.56,243.955C242.56,246.299 242.03,248.207 240.971,249.681C239.912,251.155 238.491,252.238 236.71,252.93C234.928,253.623 232.948,253.969 230.77,253.969ZM230.628,238.983C232.309,238.983 233.73,238.599 234.89,237.829C236.05,237.06 236.932,235.953 237.535,234.509C238.139,233.065 238.441,231.336 238.441,229.324C238.441,227.359 238.145,225.625 237.553,224.122C236.961,222.618 236.085,221.441 234.925,220.588C233.765,219.736 232.333,219.31 230.628,219.31C228.853,219.31 227.376,219.76 226.198,220.659C225.02,221.559 224.139,222.766 223.553,224.282C222.967,225.797 222.674,227.478 222.674,229.324C222.674,231.218 222.973,232.89 223.57,234.34C224.168,235.79 225.056,236.927 226.234,237.749C227.412,238.572 228.876,238.983 230.628,238.983Z" style="fill:white;fill-rule:nonzero;"/>
        </g>
        <g transform="matrix(1.06024,0,0,1.06024,-44.2866,-1.07736)">
            <path d="M261.665,243.742C259.037,243.742 256.773,243.159 254.874,241.993C252.974,240.827 251.512,239.193 250.488,237.092C249.464,234.991 248.952,232.544 248.952,229.75C248.952,226.957 249.464,224.492 250.488,222.355C251.512,220.218 252.944,218.549 254.785,217.348C256.626,216.146 258.777,215.546 261.239,215.546C262.66,215.546 264.062,215.782 265.447,216.256C266.832,216.729 268.093,217.496 269.229,218.555C270.365,219.615 271.271,221.015 271.946,222.755C272.62,224.495 272.958,226.637 272.958,229.182L272.958,230.958L251.935,230.958L251.935,227.336L268.696,227.336C268.696,225.797 268.392,224.424 267.782,223.216C267.172,222.009 266.308,221.056 265.19,220.358C264.071,219.659 262.754,219.31 261.239,219.31C259.57,219.31 258.129,219.721 256.916,220.544C255.702,221.367 254.77,222.435 254.119,223.749C253.468,225.063 253.142,226.471 253.142,227.975L253.142,230.39C253.142,232.449 253.501,234.192 254.217,235.619C254.933,237.045 255.93,238.128 257.209,238.868C258.487,239.608 259.972,239.978 261.665,239.978C262.766,239.978 263.763,239.821 264.657,239.507C265.551,239.193 266.323,238.72 266.974,238.087C267.625,237.453 268.128,236.663 268.483,235.716L272.532,236.853C272.106,238.226 271.389,239.43 270.383,240.466C269.377,241.502 268.134,242.307 266.655,242.881C265.175,243.455 263.512,243.742 261.665,243.742Z" style="fill:white;fill-rule:nonzero;"/>
        </g>
        <g transform="matrix(1.06024,0,0,1.06024,-44.2866,-1.07736)">
            <path d="M279.35,243.174L279.35,215.901L283.398,215.901L283.398,220.162L283.753,220.162C284.321,218.706 285.239,217.573 286.505,216.762C287.772,215.951 289.293,215.546 291.069,215.546C292.868,215.546 294.368,215.951 295.57,216.762C296.771,217.573 297.709,218.706 298.384,220.162L298.668,220.162C299.366,218.754 300.414,217.632 301.811,216.798C303.208,215.963 304.883,215.546 306.836,215.546C309.274,215.546 311.269,216.306 312.819,217.827C314.37,219.348 315.145,221.713 315.145,224.921L315.145,243.174L310.955,243.174L310.955,224.921C310.955,222.908 310.405,221.47 309.304,220.606C308.203,219.742 306.907,219.31 305.415,219.31C303.498,219.31 302.012,219.887 300.959,221.041C299.905,222.195 299.378,223.654 299.378,225.418L299.378,243.174L295.117,243.174L295.117,224.495C295.117,222.944 294.614,221.692 293.608,220.739C292.602,219.786 291.305,219.31 289.719,219.31C288.63,219.31 287.615,219.6 286.674,220.18C285.733,220.76 284.975,221.562 284.401,222.586C283.827,223.61 283.54,224.791 283.54,226.128L283.54,243.174L279.35,243.174Z" style="fill:white;fill-rule:nonzero;"/>
        </g>
        <g transform="matrix(1.06024,0,0,1.06024,-44.2866,-1.07736)">
            <path d="M333.895,243.742C331.433,243.742 329.276,243.156 327.423,241.984C325.571,240.812 324.127,239.173 323.091,237.066C322.055,234.959 321.537,232.497 321.537,229.679C321.537,226.838 322.055,224.358 323.091,222.24C324.127,220.121 325.571,218.475 327.423,217.304C329.276,216.132 331.433,215.546 333.895,215.546C336.357,215.546 338.515,216.132 340.367,217.304C342.22,218.475 343.664,220.121 344.7,222.24C345.735,224.358 346.253,226.838 346.253,229.679C346.253,232.497 345.735,234.959 344.7,237.066C343.664,239.173 342.22,240.812 340.367,241.984C338.515,243.156 336.357,243.742 333.895,243.742ZM333.895,239.978C335.766,239.978 337.304,239.498 338.512,238.539C339.719,237.581 340.613,236.32 341.193,234.757C341.773,233.195 342.063,231.502 342.063,229.679C342.063,227.856 341.773,226.158 341.193,224.583C340.613,223.009 339.719,221.737 338.512,220.766C337.304,219.795 335.766,219.31 333.895,219.31C332.025,219.31 330.486,219.795 329.279,220.766C328.071,221.737 327.178,223.009 326.598,224.583C326.018,226.158 325.728,227.856 325.728,229.679C325.728,231.502 326.018,233.195 326.598,234.757C327.178,236.32 328.071,237.581 329.279,238.539C330.486,239.498 332.025,239.978 333.895,239.978Z" style="fill:white;fill-rule:nonzero;"/>
        </g>
        <g transform="matrix(1.06024,0,0,1.06024,-44.2866,-1.07736)">
            <path d="M356.836,226.767L356.836,243.174L352.645,243.174L352.645,215.901L356.694,215.901L356.694,220.162L357.049,220.162C357.688,218.777 358.659,217.662 359.961,216.815C361.263,215.969 362.944,215.546 365.003,215.546C366.85,215.546 368.466,215.922 369.851,216.673C371.235,217.425 372.313,218.561 373.082,220.082C373.852,221.603 374.236,223.524 374.236,225.844L374.236,243.174L370.046,243.174L370.046,226.128C370.046,223.986 369.49,222.314 368.377,221.112C367.264,219.911 365.737,219.31 363.796,219.31C362.458,219.31 361.266,219.6 360.218,220.18C359.171,220.76 358.345,221.606 357.741,222.719C357.137,223.832 356.836,225.181 356.836,226.767Z" style="fill:white;fill-rule:nonzero;"/>
        </g>
        <g transform="matrix(1.06024,0,0,1.06024,-44.2866,-1.07736)">
            <path d="M392.205,243.742C389.932,243.742 387.926,243.165 386.186,242.011C384.446,240.856 383.084,239.223 382.102,237.11C381.119,234.997 380.628,232.497 380.628,229.608C380.628,226.744 381.119,224.258 382.102,222.151C383.084,220.044 384.452,218.416 386.204,217.268C387.955,216.12 389.98,215.546 392.276,215.546C394.052,215.546 395.457,215.839 396.493,216.425C397.529,217.011 398.322,217.673 398.872,218.413C399.423,219.153 399.852,219.76 400.16,220.233L400.515,220.233L400.515,206.81L404.705,206.81L404.705,243.174L400.657,243.174L400.657,238.983L400.16,238.983C399.852,239.48 399.414,240.105 398.846,240.856C398.277,241.608 397.467,242.277 396.413,242.863C395.36,243.449 393.957,243.742 392.205,243.742ZM392.773,239.978C394.454,239.978 395.874,239.537 397.035,238.655C398.195,237.773 399.076,236.548 399.68,234.979C400.284,233.411 400.586,231.597 400.586,229.537C400.586,227.501 400.29,225.717 399.698,224.184C399.106,222.651 398.23,221.455 397.07,220.597C395.91,219.739 394.478,219.31 392.773,219.31C390.998,219.31 389.521,219.763 388.343,220.668C387.165,221.574 386.283,222.799 385.697,224.344C385.112,225.888 384.819,227.62 384.819,229.537C384.819,231.479 385.117,233.239 385.715,234.82C386.313,236.4 387.201,237.655 388.379,238.584C389.556,239.513 391.021,239.978 392.773,239.978Z" style="fill:white;fill-rule:nonzero;"/>
        </g>
        <g transform="matrix(1,0,0,1,0.0005,-5.77316e-14)">
            <path d="M67.197,245.848C50.576,245.848 37.082,241.53 37.082,236.212L37.082,225.761C37.082,225.595 37.217,225.46 37.384,225.46C37.495,225.46 37.591,225.519 37.643,225.608C40.354,229.761 52.563,232.899 67.197,232.899C81.83,232.899 94.039,229.761 96.75,225.608C96.802,225.519 96.899,225.46 97.009,225.46C97.176,225.46 97.311,225.595 97.311,225.761L97.311,236.212C97.311,241.53 83.817,245.848 67.197,245.848Z" style="fill:white;"/>
        </g>
        <g transform="matrix(1,0,0,1,0.0005,-5.77316e-14)">
            <path d="M67.197,261.809C50.576,261.809 37.082,257.491 37.082,252.172L37.082,241.721C37.082,241.555 37.217,241.42 37.384,241.42C37.494,241.42 37.591,241.479 37.643,241.568C40.354,245.722 52.563,248.86 67.197,248.86C81.83,248.86 94.039,245.722 96.75,241.568C96.802,241.479 96.899,241.42 97.009,241.42C97.176,241.42 97.311,241.555 97.311,241.721L97.311,252.172C97.311,257.491 83.817,261.809 67.197,261.809Z" style="fill:white;"/>
        </g>
        <g transform="matrix(1,0,0,1,0.0005,-5.77316e-14)">
            <path d="M67.197,277.769C50.576,277.769 37.082,273.451 37.082,268.133L37.082,257.682C37.082,257.516 37.217,257.381 37.384,257.381C37.494,257.381 37.591,257.44 37.643,257.529C40.354,261.682 52.563,264.82 67.197,264.82C81.83,264.82 94.039,261.682 96.75,257.529C96.802,257.44 96.899,257.381 97.009,257.381C97.176,257.381 97.311,257.516 97.311,257.682L97.311,268.133C97.311,273.451 83.817,277.769 67.197,277.769Z" style="fill:white;"/>
        </g>
        <g transform="matrix(1,0,0,1,0.0005,-5.77316e-14)">
            <path d="M67.197,211.283C83.817,211.283 97.311,215.331 97.311,220.318C97.311,225.304 83.817,229.352 67.197,229.352C50.576,229.352 37.082,225.304 37.082,220.318C37.082,215.331 50.576,211.283 67.197,211.283Z" style="fill:white;"/>
        </g>
        <g transform="matrix(1,0,0,1,0.0005,-5.77316e-14)">
            <path d="M68.019,208.939C67.481,208.263 67.197,207.557 67.197,206.832C67.197,201.83 80.733,197.769 97.405,197.769C114.078,197.769 127.614,201.83 127.614,206.832C127.614,211.642 115.098,215.581 99.312,215.877C95.551,211.874 83.281,208.937 68.743,208.937C68.501,208.937 68.26,208.938 68.019,208.939Z" style="fill:white;"/>
        </g>
        <g transform="matrix(1,0,0,1,0.0005,-5.77316e-14)">
            <path d="M100.498,219.406C113.779,219 124.526,216.009 127.052,212.139C127.104,212.049 127.201,211.99 127.312,211.99C127.479,211.99 127.614,212.126 127.614,212.292L127.614,222.776C127.614,227.778 115.72,231.897 100.498,232.393L100.498,219.406Z" style="fill:white;"/>
        </g>
        <g transform="matrix(1,0,0,1,0.0005,-5.77316e-14)">
            <path d="M100.498,235.417C113.779,235.011 124.526,232.02 127.052,228.15C127.104,228.06 127.201,228.001 127.312,228.001C127.479,228.001 127.614,228.136 127.614,228.303L127.614,238.787C127.614,243.788 115.72,247.907 100.498,248.404L100.498,235.417Z" style="fill:white;"/>
        </g>
        <g transform="matrix(1,0,0,1,0.0005,-5.77316e-14)">
            <path d="M100.498,251.428C113.779,251.022 124.526,248.031 127.052,244.16C127.104,244.071 127.201,244.012 127.312,244.012C127.479,244.012 127.614,244.147 127.614,244.314L127.614,254.798C127.614,259.799 115.72,263.918 100.498,264.415L100.498,251.428Z" style="fill:white;"/>
        </g>
    </g>
</svg>
